<svg width="82" height="18" viewBox="0 0 82 18" fill="none" xmlns="http://www.w3.org/2000/svg">
<g clip-path="url(#clip0_17735_34486)">
<path fill-rule="evenodd" clip-rule="evenodd" d="M7.32493 16.9695C11.8533 18.105 16.4522 15.3373 17.5813 10.7717C18.7104 6.20613 15.9582 1.58141 11.4181 0.457759C6.88975 -0.677721 2.29085 2.09001 1.16171 6.65559C0.0325643 11.2093 2.79661 15.8341 7.32493 16.9695ZM11.2411 5.34223C12.4055 5.7562 13.2642 6.35943 13.0995 7.49491C12.9819 8.32286 12.5232 8.72501 11.9351 8.85512C12.7702 9.29275 13.1936 9.96694 12.7937 11.1261C12.2879 12.5691 11.1 12.6874 9.51212 12.3917L9.12398 13.9411L8.19478 13.7046L8.57117 12.1788C8.32417 12.1196 8.08893 12.0605 7.83017 11.9895L7.45379 13.5271L6.5246 13.2906L6.91274 11.7411C6.70102 11.682 6.47755 11.6229 6.25407 11.5637L5.0426 11.2562L5.50131 10.1917C5.50131 10.1917 6.1835 10.3691 6.17174 10.3573C6.4305 10.4164 6.54812 10.2508 6.59517 10.1325L7.20679 7.68415C7.22443 7.69007 7.23913 7.69303 7.25383 7.69598C7.26854 7.69894 7.28324 7.7019 7.30088 7.70781C7.27922 7.69328 7.25755 7.68768 7.23861 7.68278C7.2267 7.67969 7.21587 7.67689 7.20679 7.67233L7.64198 5.92179C7.65374 5.72072 7.58317 5.47233 7.20679 5.37771C7.23031 5.36588 6.53636 5.21212 6.53636 5.21212L6.78336 4.21857L8.0654 4.53793C8.25359 4.58524 8.45355 4.63255 8.6535 4.67986L9.02988 3.14223L9.95907 3.37879L9.58269 4.88094L10.3237 5.05836L10.6883 3.56804L11.6175 3.8046L11.2411 5.34223ZM8.30732 10.9132C9.06333 11.1122 10.7237 11.5493 10.9824 10.4874C11.2497 9.39066 9.61192 9.027 8.83467 8.85441C8.7569 8.83715 8.68774 8.82179 8.62997 8.80781L8.12421 10.8659C8.17649 10.8788 8.23812 10.895 8.30732 10.9132ZM9.0094 7.91133C9.63373 8.07853 11.0266 8.45154 11.2646 7.48308C11.5195 6.48987 10.1634 6.19095 9.50813 6.0465C9.43767 6.03097 9.37531 6.01722 9.32393 6.00459L8.86521 7.8734C8.90662 7.88381 8.9551 7.89679 9.0094 7.91133Z" fill="white"/>
<path d="M25.7208 5.3407C26.403 5.3407 27.0028 5.45898 27.4968 5.70737C28.0026 5.95575 28.4143 6.28693 28.7436 6.70091C29.0729 7.11489 29.3082 7.61166 29.4728 8.16757C29.6257 8.72348 29.7081 9.32671 29.7081 9.97724C29.7081 10.9708 29.5316 11.9052 29.167 12.7923C28.8024 13.6794 28.3084 14.4482 27.6733 15.0987C27.0499 15.7493 26.2971 16.2697 25.4503 16.6482C24.5917 17.0267 23.6625 17.2159 22.6627 17.2159C22.5333 17.2159 22.3098 17.2159 21.9805 17.2041C21.6629 17.1923 21.2866 17.1686 20.8749 17.1095C20.4632 17.0503 20.0163 16.9675 19.5576 16.8493C19.0989 16.731 18.6519 16.5772 18.2402 16.3761L21.9452 0.715985L25.2621 0.195557L23.933 5.75468C24.2153 5.62457 24.4976 5.52995 24.7916 5.45898C25.0857 5.38801 25.3915 5.3407 25.7208 5.3407ZM22.9332 14.5665C23.439 14.5665 23.9095 14.4482 24.3447 14.1998C24.7916 13.9514 25.168 13.6321 25.4973 13.2181C25.8149 12.8041 26.0737 12.3428 26.2618 11.8224C26.45 11.302 26.5441 10.7697 26.5441 10.202C26.5441 9.51595 26.4265 8.97187 26.203 8.58155C25.9796 8.19123 25.5561 8.00198 24.9445 8.00198C24.7446 8.00198 24.4858 8.03747 24.1682 8.10843C23.8507 8.1794 23.5566 8.33316 23.2978 8.55789L21.8864 14.46C21.9688 14.4719 22.0511 14.4837 22.1099 14.5073C22.1687 14.5192 22.2393 14.531 22.3098 14.5428C22.3804 14.5546 22.4628 14.5546 22.5686 14.5546C22.6745 14.5546 22.7803 14.5665 22.9332 14.5665Z" fill="white"/>
<path d="M33.1425 16.92H29.9668L32.6485 5.58883H35.836L33.1425 16.92ZM34.6951 4.20497C34.2481 4.20497 33.8482 4.07486 33.4954 3.80282C33.1307 3.5426 32.9543 3.12862 32.9543 2.58454C32.9543 2.28884 33.0131 2.00497 33.1307 1.73293C33.2484 1.47272 33.413 1.23616 33.613 1.04691C33.8129 0.857664 34.0482 0.703901 34.3069 0.585622C34.5775 0.467343 34.8597 0.408203 35.1538 0.408203C35.6007 0.408203 36.0006 0.53831 36.3535 0.810353C36.7064 1.08239 36.8945 1.48454 36.8945 2.02863C36.8945 2.33615 36.8357 2.62002 36.7181 2.88024C36.6005 3.14045 36.4358 3.37701 36.2359 3.56626C36.0359 3.7555 35.8007 3.90927 35.5419 4.02755C35.2714 4.14583 34.9891 4.20497 34.6951 4.20497Z" fill="white"/>
<path d="M38.6238 2.76188L41.9407 2.24146L41.1291 5.57693H44.6812L44.0343 8.20273H40.5057L39.5648 12.1651C39.4824 12.4963 39.4236 12.8038 39.4119 13.0877C39.4001 13.3715 39.4354 13.6199 39.5177 13.8328C39.6001 14.0457 39.753 14.1995 39.9764 14.3178C40.1999 14.436 40.5175 14.4952 40.9291 14.4952C41.2702 14.4952 41.5996 14.4597 41.9289 14.4006C42.2465 14.3414 42.5758 14.2468 42.9051 14.1285L43.1404 16.5887C42.717 16.7425 42.2465 16.8844 41.7525 17.0027C41.2467 17.121 40.6586 17.1801 39.9764 17.1801C38.9884 17.1801 38.2239 17.0382 37.6829 16.7425C37.1418 16.4468 36.7537 16.0446 36.5302 15.536C36.3067 15.0274 36.2009 14.436 36.2362 13.7855C36.2597 13.1231 36.3655 12.4253 36.5302 11.692L38.6238 2.76188Z" fill="white"/>
<path d="M44.5508 12.3907C44.5508 11.409 44.7037 10.4982 45.0213 9.63479C45.3388 8.77135 45.7858 8.01437 46.3739 7.37566C46.962 6.73695 47.6677 6.21652 48.5028 5.84986C49.3379 5.48319 50.2671 5.29395 51.3021 5.29395C51.949 5.29395 52.5253 5.35308 53.0311 5.48319C53.5369 5.60147 53.9956 5.76706 54.419 5.96814L53.3251 8.46383C53.0429 8.34555 52.7371 8.2391 52.4312 8.1563C52.1254 8.06168 51.7491 8.01437 51.3021 8.01437C50.2435 8.01437 49.4084 8.38103 48.7851 9.11436C48.1617 9.84769 47.8559 10.8294 47.8559 12.0713C47.8559 12.8047 48.0088 13.3961 48.3263 13.8455C48.6439 14.295 49.2202 14.5197 50.0671 14.5197C50.4788 14.5197 50.8787 14.4724 51.2668 14.3896C51.655 14.3068 51.9961 14.2004 52.2901 14.0703L52.5253 16.6369C52.1254 16.7907 51.6785 16.9326 51.1962 17.0627C50.714 17.181 50.1259 17.2401 49.4555 17.2401C48.5733 17.2401 47.8206 17.11 47.209 16.8498C46.5973 16.5896 46.0916 16.2466 45.6917 15.809C45.2918 15.3713 44.9977 14.8509 44.8213 14.2713C44.6331 13.6563 44.5508 13.0412 44.5508 12.3907Z" fill="white"/>
<path d="M58.6306 17.2152C57.8778 17.2152 57.2192 17.097 56.6546 16.8722C56.1018 16.6475 55.6431 16.3163 55.2785 15.9023C54.9138 15.4884 54.6433 14.9916 54.4551 14.4239C54.2669 13.8561 54.1729 13.2292 54.1729 12.5432C54.1729 11.6798 54.314 10.8163 54.5845 9.9529C54.8668 9.08946 55.2785 8.32065 55.8195 7.6228C56.3606 6.93678 57.031 6.36904 57.8073 5.93141C58.5953 5.49377 59.4892 5.26904 60.5007 5.26904C61.2417 5.26904 61.9004 5.38732 62.465 5.61205C63.0296 5.83678 63.4883 6.16796 63.8529 6.58194C64.2175 6.99592 64.488 7.49269 64.6762 8.06043C64.8644 8.62817 64.9585 9.25505 64.9585 9.94107C64.9585 10.8045 64.8174 11.6679 64.5468 12.5314C64.2763 13.3948 63.8764 14.1636 63.3471 14.8615C62.8178 15.5475 62.1592 16.1152 61.3711 16.5529C60.5948 17.0023 59.6774 17.2152 58.6306 17.2152ZM60.2185 8.00129C59.748 8.00129 59.3363 8.14323 58.9717 8.41527C58.6188 8.68731 58.313 9.03032 58.0778 9.4443C57.8308 9.85827 57.6544 10.3196 57.525 10.8163C57.4074 11.3131 57.3486 11.7862 57.3486 12.2239C57.3486 12.9454 57.4662 13.5013 57.6897 13.9034C57.9249 14.3056 58.3366 14.5066 58.9364 14.5066C59.4069 14.5066 59.8186 14.3647 60.1832 14.0927C60.536 13.8206 60.8418 13.4776 61.0771 13.0636C61.3241 12.6497 61.5005 12.1884 61.6299 11.6916C61.7475 11.1948 61.8063 10.7217 61.8063 10.2841C61.8063 9.56258 61.6887 9.00666 61.4652 8.60452C61.23 8.20237 60.8183 8.00129 60.2185 8.00129Z" fill="white"/>
<path d="M68.4277 16.92H65.252L67.9337 5.58883H71.1329L68.4277 16.92ZM69.9685 4.20497C69.5215 4.20497 69.1216 4.07486 68.7688 3.80282C68.4159 3.5426 68.2277 3.12862 68.2277 2.58454C68.2277 2.28884 68.2865 2.00497 68.4159 1.73293C68.5335 1.47272 68.6982 1.23616 68.8981 1.04691C69.0981 0.857664 69.3333 0.703901 69.5921 0.585622C69.8508 0.467343 70.1331 0.408203 70.4389 0.408203C70.8859 0.408203 71.2858 0.53831 71.6387 0.810353C71.9915 1.08239 72.1797 1.48454 72.1797 2.02863C72.1797 2.33615 72.1209 2.62002 71.9915 2.88024C71.8739 3.14045 71.7092 3.37701 71.5093 3.56626C71.3093 3.7555 71.0741 3.90927 70.8153 4.02755C70.5566 4.14583 70.2743 4.20497 69.9685 4.20497Z" fill="white"/>
<path d="M73.4149 6.09778C73.6501 6.02681 73.9206 5.94402 74.2147 5.84939C74.5087 5.75477 74.838 5.67198 75.2027 5.58918C75.5673 5.50638 75.9789 5.44725 76.4259 5.38811C76.8729 5.34079 77.3904 5.31714 77.9549 5.31714C79.6251 5.31714 80.7778 5.80208 81.4129 6.7838C82.0481 7.76552 82.1539 9.10207 81.7423 10.7935L80.2838 16.9085H77.0963L78.5077 10.9236C78.5901 10.5451 78.6607 10.1902 78.7077 9.8354C78.7548 9.48057 78.7548 9.17304 78.6959 8.91283C78.6371 8.65261 78.5078 8.42788 78.296 8.26229C78.0843 8.0967 77.7668 8.0139 77.3433 8.0139C76.9317 8.0139 76.5082 8.06121 76.0848 8.14401L74.0029 16.9085H70.8037C70.8272 16.9203 73.4149 6.09778 73.4149 6.09778Z" fill="white"/>
</g>
<defs>
<clipPath id="clip0_17735_34486">
<rect width="81.078" height="17.0446" fill="white" transform="translate(0.908203 0.195801)"/>
</clipPath>
</defs>
</svg>
