<svg width="26" height="16" viewBox="0 0 26 16" fill="none" xmlns="http://www.w3.org/2000/svg">
<path fill-rule="evenodd" clip-rule="evenodd" d="M6.97533 0.527517C6.07538 0.636302 5.04192 0.923099 4.41888 1.23956C3.12829 1.89228 1.98605 2.93068 1.30367 4.07787C0.769635 4.97287 0.413611 5.94205 0.275158 6.89639C0.196041 7.4057 0.196041 8.61223 0.275158 9.12154C0.44328 10.244 0.922923 11.4258 1.59541 12.3801C1.96133 12.8944 2.80688 13.74 3.32609 14.1059C5.42267 15.5943 8.1423 15.9157 10.4861 14.9514C11.0746 14.7091 11.7817 14.3037 12.2415 13.9476L12.3651 13.8487L12.1624 13.6361C11.4355 12.8647 10.8372 11.9252 10.4515 10.9264L10.4059 10.8116C10.306 10.561 10.2641 10.4557 10.2991 10.412C10.3244 10.3804 10.39 10.381 10.5031 10.382C10.5253 10.3822 10.5493 10.3825 10.5751 10.3825H10.8916L11.0053 10.689C11.2822 11.4703 11.9102 12.484 12.5184 13.1318L12.8349 13.4729L13.186 13.1021C13.7892 12.4642 14.4123 11.4505 14.6941 10.6396L14.7881 10.3825H15.0947C15.2677 10.3825 15.4062 10.3923 15.4062 10.4022C15.4062 10.4962 15.1045 11.2379 14.9018 11.6335C14.5705 12.2961 14.1848 12.8697 13.7101 13.4087L13.3145 13.8586L13.4332 13.9526C15.8067 15.8217 19.3027 16.0146 21.8838 14.4174C23.753 13.2653 25.093 11.2527 25.3897 9.14626C25.805 6.21895 24.559 3.37571 22.1657 1.7736C19.9208 0.275333 16.9984 0.0824866 14.6101 1.28407C14.2343 1.47691 13.359 2.04062 13.3046 2.12962C13.2849 2.15435 13.4134 2.3373 13.5865 2.5351C14.2491 3.2867 14.6397 3.88008 14.9809 4.63168C15.1342 4.97287 15.3567 5.55635 15.3567 5.62064C15.3567 5.62558 15.2282 5.63547 15.065 5.63547H14.7782L14.6892 5.39812C14.3727 4.55751 13.72 3.51416 13.1415 2.91584L12.7854 2.54499L12.5283 2.81695C11.93 3.45977 11.3811 4.31027 11.0449 5.12616L10.8372 5.63547H10.5702C10.5469 5.63547 10.5254 5.63581 10.5057 5.63613H10.5057H10.5057C10.4253 5.63741 10.3745 5.63822 10.3522 5.61342C10.3139 5.57089 10.3592 5.45306 10.4821 5.13319C10.5014 5.0832 10.5225 5.02827 10.5455 4.96793C10.8619 4.13226 11.4009 3.27187 12.0635 2.54004C12.2415 2.34225 12.3899 2.16918 12.3899 2.15929C12.3899 2.12468 11.5245 1.57086 11.1537 1.36813C10.4614 0.987381 9.54661 0.695639 8.65656 0.567075C8.20658 0.502793 7.34619 0.483014 6.97533 0.527517ZM17.5275 6.41675C17.933 6.61948 17.9478 6.67387 17.661 6.96562L17.4236 7.20791L17.2456 7.13374C16.8649 6.9755 16.3605 7.14857 16.1133 7.52438C15.9452 7.77656 15.8957 8.35015 16.0193 8.59739C16.1627 8.86936 16.3655 8.95836 16.7759 8.93364L17.1319 8.91386L17.2308 9.2501C17.2901 9.43306 17.3346 9.59129 17.3346 9.60118C17.3346 9.66546 16.8797 9.74458 16.5286 9.74953C16.0688 9.75447 15.866 9.69019 15.5842 9.438C15.1639 9.07209 15.0007 8.57267 15.1045 7.94468C15.2381 7.1189 15.8018 6.45136 16.5138 6.27335C16.7709 6.20906 17.2407 6.27829 17.5275 6.41675ZM24.8013 6.26346C24.8013 6.27829 24.6579 7.06946 24.4798 8.01885C24.3018 8.96331 24.1584 9.74953 24.1584 9.76436C24.1584 9.77919 23.9705 9.78908 23.7431 9.78908C23.3673 9.78908 23.3228 9.77919 23.2931 9.69019C23.2535 9.57151 23.209 9.56657 23.0112 9.67041C22.7986 9.77919 22.4228 9.77919 22.2596 9.67535C21.9234 9.45284 21.691 8.87924 21.7602 8.43916C21.8196 8.0683 22.0322 7.57877 22.2349 7.34636C22.3931 7.16835 22.497 7.09912 22.7096 7.03979C23.0805 6.931 23.4118 6.96562 23.6343 7.13374C23.6465 7.14317 23.6578 7.15216 23.6684 7.16056L23.6685 7.16062C23.7232 7.20394 23.7583 7.2317 23.7854 7.22538C23.8338 7.2141 23.8568 7.09442 23.9211 6.76125L23.9409 6.65904L24.0249 6.22884H24.4106C24.6282 6.22884 24.8013 6.24368 24.8013 6.26346ZM10.7086 6.33763C10.7086 6.37224 10.6889 6.48103 10.6641 6.57498L10.6455 6.64621C10.5848 6.87795 10.5616 6.96665 10.5945 7.00027C10.615 7.02111 10.657 7.02077 10.7252 7.02021L10.763 7.02001C10.9509 7.02001 10.9658 7.0299 10.941 7.12879C10.9262 7.19308 10.8965 7.32658 10.8817 7.42548C10.8471 7.60349 10.8372 7.61338 10.6592 7.61338H10.4713L10.3674 8.17214C10.3131 8.48366 10.2636 8.78035 10.2636 8.83969C10.2636 8.96331 10.4317 9.06715 10.5702 9.03253C10.6641 9.00781 10.6691 9.0177 10.6394 9.30944C10.5999 9.65557 10.5504 9.71491 10.2587 9.75941C9.83836 9.82864 9.4675 9.59624 9.39333 9.22043C9.3686 9.06715 9.48728 8.43916 9.89769 6.60959L9.97681 6.27829H10.3427C10.6048 6.27829 10.7086 6.29807 10.7086 6.33763ZM2.74755 7.30186C2.78216 7.78645 2.82666 8.22159 2.8415 8.26609C2.86128 8.32543 3.01456 8.02874 3.29147 7.39087L3.71178 6.42663H4.36943C4.7304 6.42663 5.0172 6.44147 5.00731 6.46125C4.99248 6.48597 4.84413 7.22274 4.67601 8.10786C4.50294 8.99297 4.34965 9.73469 4.32987 9.75447C4.3101 9.77425 4.12714 9.78908 3.9244 9.77919L3.55354 9.76436L3.76617 8.65178L3.79865 8.48399C3.90236 7.94832 3.98374 7.52794 3.98374 7.51449C3.98374 7.49965 3.75134 7.99907 3.46948 8.62706L2.96017 9.76436L2.60909 9.77919C2.4113 9.78908 2.25307 9.77425 2.25307 9.75447C2.25307 9.65063 2.10473 7.99907 2.07506 7.76172C2.04044 7.49965 2.0355 7.51943 1.82782 8.52816C1.70914 9.09681 1.60036 9.61602 1.58552 9.67535C1.5608 9.77919 1.53113 9.78908 1.185 9.78908C0.819083 9.78908 0.809194 9.78414 0.833917 9.67535C0.848752 9.61602 1.00204 8.85947 1.17016 7.99413L1.47179 6.42663H2.08H2.68326L2.74755 7.30186ZM8.99774 6.97056C9.1807 7.00023 9.35377 7.03484 9.37849 7.04473C9.41805 7.06946 9.29443 7.55899 9.23509 7.61833C9.21531 7.63811 9.04719 7.63316 8.85435 7.60844C8.58238 7.57382 8.49832 7.57877 8.44393 7.63316C8.32525 7.75183 8.42415 7.8804 8.78512 8.07325C9.19554 8.30071 9.3241 8.47377 9.3241 8.80507C9.3241 9.31933 8.96808 9.65557 8.35492 9.71986C8.02857 9.75447 7.35608 9.70997 7.25224 9.64569C7.15829 9.58635 7.29674 9.0622 7.39564 9.09187C7.43519 9.10176 7.67254 9.12154 7.91484 9.13637C8.28075 9.15121 8.3747 9.14132 8.4291 9.08198C8.5626 8.9188 8.4736 8.79518 8.06318 8.57267C7.83572 8.44905 7.63299 8.30071 7.58354 8.22159C7.39069 7.91501 7.53904 7.33153 7.85056 7.14363C7.98901 7.06451 8.42415 6.93595 8.60711 6.92606C8.63678 6.92606 8.80984 6.94584 8.99774 6.97056ZM6.71326 7.13868C6.94072 7.24252 7.01983 7.31669 7.12367 7.51449C7.2374 7.73206 7.20279 8.19687 7.00994 9.14626L6.87644 9.81381L6.54019 9.81875C6.26328 9.8237 6.18911 9.80886 6.14461 9.73469C6.09516 9.65557 6.08033 9.65557 5.95176 9.71986C5.72925 9.83359 5.30894 9.81875 5.07654 9.68524C4.81446 9.54184 4.65129 9.22538 4.70073 8.96331C4.81941 8.32048 5.32872 7.95952 6.11494 7.95952C6.45613 7.95952 6.51052 7.9249 6.46602 7.74689C6.43141 7.61833 6.25339 7.5936 5.63035 7.64305L5.06665 7.68755L5.09137 7.56393C5.09964 7.52534 5.11098 7.46523 5.12283 7.40246C5.13223 7.35263 5.14196 7.30112 5.15071 7.25736C5.18038 7.05957 5.21499 7.04473 5.64024 7.01012C5.90231 6.98539 6.54514 7.06451 6.71326 7.13868ZM12.6668 7.04473C12.914 7.11396 13.1118 7.28208 13.2354 7.51449C13.3046 7.64305 13.3244 8.39466 13.2601 8.4985C13.2354 8.53311 12.9684 8.55289 12.4344 8.55289C11.6877 8.55289 11.6481 8.55783 11.6481 8.64684C11.6481 8.84463 11.747 9.00286 11.9201 9.07209C12.1031 9.15121 12.5679 9.16604 12.9536 9.10176L13.1909 9.0622L13.1612 9.27977C13.1167 9.61602 13.0624 9.6803 12.7953 9.71986C12.3849 9.78414 11.7372 9.76436 11.5492 9.6803C11.0844 9.47756 10.8421 9.08198 10.8372 8.52816C10.8372 8.05347 10.9608 7.71722 11.2427 7.41065C11.6086 7.01506 12.1228 6.88155 12.6668 7.04473ZM19.5005 7.15352C19.5895 7.19802 19.723 7.31175 19.7971 7.4057C19.9158 7.55899 19.9306 7.62327 19.9257 7.92985C19.9208 8.21664 19.7279 9.41823 19.629 9.74458C19.6092 9.81381 19.545 9.82864 19.2582 9.81875C19.0208 9.81381 18.8972 9.78908 18.8675 9.74458C18.8329 9.68524 18.8032 9.68524 18.6796 9.73469C18.6005 9.7693 18.4077 9.79403 18.2494 9.79403C17.7302 9.79403 17.389 9.438 17.4533 8.95342C17.4978 8.61223 17.6709 8.35015 17.9676 8.17709C18.2494 8.00402 18.4472 7.95952 18.9071 7.95952C19.1056 7.95952 19.1776 7.95952 19.1999 7.92623C19.2126 7.90729 19.2091 7.87758 19.2038 7.83095C19.179 7.61338 19.0851 7.5936 18.4274 7.64305L18.3032 7.65249C18.0152 7.67468 17.8928 7.68411 17.8533 7.63139C17.8241 7.59242 17.8401 7.5195 17.8681 7.39267L17.8681 7.39244C17.8729 7.37049 17.8781 7.34692 17.8835 7.32164C17.933 7.09418 17.9478 7.06946 18.0912 7.04473C18.5412 6.97056 19.2235 7.02495 19.5005 7.15352ZM21.2163 7.1189L21.246 7.26725L21.3844 7.16341C21.513 7.06946 21.9234 6.94584 21.9679 6.98539C21.9778 7.00023 21.9432 7.15846 21.8937 7.34636C21.8047 7.66777 21.7899 7.6925 21.6218 7.737C21.2311 7.84579 21.0828 8.13258 20.8949 9.09681L20.7713 9.76436L20.3658 9.77919C19.9999 9.79403 19.9653 9.78414 19.985 9.70502C20.0098 9.59624 20.4993 7.02001 20.4993 6.99034C20.4993 6.98045 20.6526 6.97056 20.8405 6.97056C21.0594 6.97056 21.1378 6.97056 21.1751 7.00974C21.1959 7.03163 21.2039 7.06574 21.2163 7.1189ZM14.4667 7.14363L14.5112 7.26725L14.709 7.16835C14.971 7.0299 15.2826 6.9755 15.2479 7.0744C15.2331 7.11396 15.1787 7.28703 15.1342 7.4502C15.0551 7.72711 15.0353 7.75678 14.887 7.7815C14.798 7.80128 14.6694 7.87051 14.6002 7.93974C14.3777 8.16225 14.3134 8.36004 14.0711 9.54679L14.0167 9.82864L13.6508 9.81875C13.453 9.81875 13.275 9.80392 13.2601 9.78414C13.2404 9.76436 13.6359 7.61338 13.7497 7.12879C13.7744 7.0299 13.8041 7.02001 14.0958 7.02001C14.3974 7.02001 14.4222 7.0299 14.4667 7.14363ZM23.0502 7.68739C22.6447 7.90001 22.4469 8.54284 22.6892 8.82963C23.0502 9.24994 23.7128 8.63679 23.5941 7.99397C23.5348 7.67255 23.3123 7.54894 23.0502 7.68739ZM5.77557 9.14648C5.43932 9.14648 5.37998 8.83496 5.68656 8.64706C5.78051 8.58772 5.92885 8.5531 6.0772 8.5531C6.29477 8.5531 6.3096 8.56299 6.3096 8.68167C6.3096 8.94374 6.0772 9.14648 5.77557 9.14648ZM12.0773 7.56406C11.8993 7.61846 11.8053 7.69757 11.7163 7.87064L11.6422 8.00909H12.1169H12.5866V7.87064C12.5866 7.60362 12.369 7.47506 12.0773 7.56406ZM18.5555 9.14648C18.2489 9.14648 18.1797 8.93385 18.417 8.6965C18.5456 8.57288 18.6 8.5531 18.8373 8.5531C18.9925 8.5531 19.0666 8.5518 19.0918 8.58623C19.1155 8.61871 19.0958 8.68301 19.0598 8.81023C19.0055 9.02286 18.8175 9.14648 18.5555 9.14648Z" fill="white"/>
</svg>
