<svg width="55" height="14" viewBox="0 0 55 14" fill="none" xmlns="http://www.w3.org/2000/svg">
<g clip-path="url(#clip0_19221_37515)">
<path d="M2.4248 0.635417H7.11699C7.54355 0.635417 8.82324 0.5 9.39199 2.39583C9.81855 3.61458 10.3873 5.51042 11.2404 8.35417H11.5248C12.3779 5.375 13.0889 3.34375 13.3732 2.39583C13.942 0.5 15.3639 0.635417 15.9326 0.635417H20.3404V13.6354H15.7904V5.91667H15.5061L13.0889 13.6354H9.67637L7.25918 5.91667H6.83262V13.6354H2.4248M22.1889 0.635417H26.7389V8.35417H27.1654L30.1514 1.98958C30.7201 0.770833 31.9998 0.635417 31.9998 0.635417H36.2654V13.6354H31.7154V5.91667H31.4311L28.4451 12.2812C27.8764 13.5 26.4545 13.6354 26.4545 13.6354H22.1889M42.3795 9.70833V13.6354H38.1139V6.86458H52.0482C51.4795 8.48958 49.4889 9.70833 47.2139 9.70833" fill="white"/>
<path d="M52.3322 6.05168C52.901 3.61418 51.1947 0.63501 47.4979 0.63501H37.8291C38.1135 3.47876 40.6729 6.05168 43.3744 6.05168" fill="white"/>
</g>
<defs>
<clipPath id="clip0_19221_37515">
<rect width="53.75" height="13.75" fill="white" transform="translate(0.466797 0.125)"/>
</clipPath>
</defs>
</svg>
