<svg width="46" height="46" viewBox="0 0 46 46" fill="none" xmlns="http://www.w3.org/2000/svg">
<path d="M22.999 43.4531C34.295 43.4531 43.4521 34.2959 43.4521 23C43.4521 11.7041 34.295 2.54688 22.999 2.54688C11.7031 2.54688 2.5459 11.7041 2.5459 23C2.5459 34.2959 11.7031 43.4531 22.999 43.4531Z" fill="#FFEC9B"/>
<path d="M23.001 38.8047C31.7297 38.8047 38.8057 31.7287 38.8057 23C38.8057 14.2713 31.7297 7.19531 23.001 7.19531C14.2723 7.19531 7.19629 14.2713 7.19629 23C7.19629 31.7287 14.2723 38.8047 23.001 38.8047Z" fill="#F8B021"/>
<path fill-rule="evenodd" clip-rule="evenodd" d="M38.745 24.3945C38.7851 23.9351 38.8057 23.47 38.8057 23C38.8057 14.2714 31.7296 7.19531 23.001 7.19531C14.2723 7.19531 7.19629 14.2714 7.19629 23C7.19629 23.47 7.2168 23.9351 7.25697 24.3945C7.96297 16.319 14.7422 9.98438 23.001 9.98438C31.2598 9.98438 38.0389 16.319 38.745 24.3945Z" fill="#FBCD50"/>
<g clip-path="url(#clip0_2345_1225)">
<path d="M20.2315 26.7964L11.2355 17.7875V21.2286L22.6674 32.6605V21.3833H20.2315V26.7964Z" fill="#FEF5CD"/>
<path d="M26.2374 20.2234L28.6604 17.8004H17.8085L20.2315 20.2234H26.2374Z" fill="#FEF5CD"/>
<path d="M26.2374 26.7964V21.3833H23.8015V32.6605L35.2334 21.2286V17.7875L26.2374 26.7964Z" fill="#FEF5CD"/>
</g>
<defs>
<clipPath id="clip0_2345_1225">
<rect width="25.5" height="25.5" fill="white" transform="translate(10 12.4375)"/>
</clipPath>
</defs>
</svg>
