<svg width="55" height="23" viewBox="0 0 55 23" fill="none" xmlns="http://www.w3.org/2000/svg">
<g clip-path="url(#clip0_17735_34507)">
<path d="M25.2553 9.1071V7.36227L33.4761 7.36227V9.1071L30.4116 9.1071L30.4116 17.3718H28.3198L28.3198 9.1071H25.2553ZM43.5712 12.3671C43.5712 13.4586 43.3643 14.3872 42.9505 15.1529C42.5399 15.9186 41.9795 16.5035 41.2692 16.9075C40.5621 17.3083 39.7671 17.5087 38.8841 17.5087C37.9946 17.5087 37.1963 17.3067 36.4892 16.9026C35.7822 16.4986 35.2234 15.9137 34.8128 15.148C34.4023 14.3823 34.197 13.4553 34.197 12.3671C34.197 11.2755 34.4023 10.3469 34.8128 9.58119C35.2234 8.81548 35.7822 8.23225 36.4892 7.83147C37.1963 7.42744 37.9946 7.22543 38.8841 7.22543C39.7671 7.22543 40.5621 7.42744 41.2692 7.83147C41.9795 8.23225 42.5399 8.81548 42.9505 9.58119C43.3643 10.3469 43.5712 11.2755 43.5712 12.3671ZM41.4256 12.3671C41.4256 11.66 41.3197 11.0637 41.1079 10.5782C40.8993 10.0927 40.6045 9.72456 40.2232 9.47366C39.842 9.22277 39.3956 9.09733 38.8841 9.09733C38.3725 9.09733 37.9261 9.22277 37.5449 9.47366C37.1637 9.72456 36.8672 10.0927 36.6554 10.5782C36.4469 11.0637 36.3426 11.66 36.3426 12.3671C36.3426 13.0741 36.4469 13.6704 36.6554 14.1559C36.8672 14.6414 37.1637 15.0095 37.5449 15.2604C37.9261 15.5113 38.3725 15.6368 38.8841 15.6368C39.3956 15.6368 39.842 15.5113 40.2232 15.2604C40.6045 15.0095 40.8993 14.6414 41.1079 14.1559C41.3197 13.6704 41.4256 13.0741 41.4256 12.3671ZM53.5111 7.36227V17.3718L51.6832 17.3718L47.3284 11.0719H47.2551V17.3718H45.1388L45.1388 7.36227H46.9961L51.3166 13.6573H51.4046V7.36227H53.5111Z" fill="white"/>
<path fill-rule="evenodd" clip-rule="evenodd" d="M22.3827 11.718C22.3827 17.6445 17.5784 22.4489 11.6518 22.4489C5.7253 22.4489 0.920898 17.6445 0.920898 11.718C0.920898 5.79146 5.7253 0.987061 11.6518 0.987061C17.5784 0.987061 22.3827 5.79146 22.3827 11.718ZM14.6835 8.07907L8.66486 8.07911C8.50378 8.07911 8.24838 8.07999 7.99636 8.19776C7.76131 8.3076 7.5659 8.48704 7.43609 8.71151C7.30628 8.93594 7.24822 9.19478 7.26945 9.45313C7.29256 9.73405 7.42467 9.95173 7.51009 10.0925L7.51331 10.0978L11.246 16.6158C11.3288 16.7604 11.4825 16.8499 11.6492 16.8505C11.8159 16.851 11.9702 16.7627 12.0541 16.6186L15.8566 10.0868L15.8601 10.0805C15.9821 9.86336 16.0365 9.61417 16.0365 9.38545C16.0365 9.14473 15.9765 8.92095 15.8601 8.71369C15.8534 8.70181 15.8462 8.6902 15.8385 8.67893C15.7395 8.5341 15.5981 8.33826 15.3316 8.21401C15.1092 8.11034 14.8965 8.07907 14.6835 8.07907ZM8.66486 9.0122H11.1843V14.6303L8.32013 9.629L8.31426 9.61904C8.21887 9.46171 8.2027 9.41634 8.19944 9.37667C8.19377 9.30746 8.20937 9.23832 8.24386 9.17865C8.27835 9.11901 8.32994 9.07184 8.39137 9.04317C8.43579 9.0224 8.49933 9.0122 8.66486 9.0122ZM12.1174 14.6551V9.0122H14.6835C14.7972 9.0122 14.8681 9.02746 14.9374 9.05976C14.954 9.0675 14.9657 9.07586 14.981 9.09146C14.9989 9.1097 15.0202 9.13634 15.0552 9.18666C15.0885 9.25104 15.1034 9.31351 15.1034 9.38545C15.1034 9.47413 15.081 9.56097 15.0479 9.62107L12.1174 14.6551Z" fill="white"/>
</g>
<defs>
<clipPath id="clip0_17735_34507">
<rect width="53.7389" height="21.4619" fill="white" transform="translate(0.919922 0.987305)"/>
</clipPath>
</defs>
</svg>
