<svg width="43" height="14" viewBox="0 0 43 14" fill="none" xmlns="http://www.w3.org/2000/svg">
<path d="M27.6931 0.829834C24.736 0.829834 22.0932 2.23166 22.0932 4.82106C22.0932 7.79093 26.7801 7.99604 26.7801 9.48822C26.7801 10.1165 25.993 10.6788 24.648 10.6788C22.7398 10.6788 21.3136 9.8931 21.3136 9.8931L20.7033 12.5065C20.7033 12.5065 22.3463 13.1703 24.5275 13.1703C27.7606 13.1703 30.305 11.6998 30.305 9.06581C30.305 5.92742 25.5986 5.72841 25.5986 4.34374C25.5986 3.85156 26.2448 3.31248 27.5855 3.31248C29.0985 3.31248 30.3325 3.88396 30.3325 3.88396L30.93 1.36014C30.93 1.36014 29.5867 0.829834 27.6927 0.829834H27.6931ZM0.637138 1.02046L0.56543 1.40132C0.56543 1.40132 1.80948 1.60947 2.93012 2.02503C4.37303 2.5012 4.47559 2.77874 4.71865 3.63959L7.36642 12.9735H10.916L16.3841 1.02046H12.8429L9.32922 9.14739L7.89548 2.25835C7.76415 1.46994 7.09793 1.02007 6.28288 1.02007H0.637554L0.637138 1.02046ZM17.8083 1.02046L15.0304 12.9735H18.4073L21.1752 1.02046H17.8083ZM36.6424 1.02046C35.8282 1.02046 35.3967 1.41923 35.0803 2.11576L30.1328 12.9735H33.674L34.359 11.1638H38.6732L39.0897 12.9735H42.2144L39.4886 1.02046H36.6424ZM37.1031 4.24996L38.1529 8.73527H35.3408L37.1035 4.24996H37.1031Z" fill="white"/>
</svg>
